<?xml version="1.0" encoding="UTF-8"?>
<svg id="Warstwa_1" xmlns="http://www.w3.org/2000/svg" version="1.1" viewBox="0 0 512 512">
  <!-- Generator: Adobe Illustrator 29.3.1, SVG Export Plug-In . SVG Version: 2.1.0 Build 151)  -->
  <defs>
    <style>
      .st0, .st1, .st2 {
        opacity: .6;
      }

      .st1, .st3 {
        fill: #1fa85a;
      }

      .st1, .st2 {
        isolation: isolate;
      }

      .st4, .st2 {
        fill: #167a43;
      }

      .st5 {
        fill: #dde7e2;
      }

      .st6 {
        fill: #102218;
      }

      .st7 {
        display: none;
      }
    </style>
  </defs>
  <g id="Warstwa_11" data-name="Warstwa_1">
    <path class="st5" d="M314.5,157.1s-25.5,29.1-29.2,35.2c-3.7,6.1-8.2,22.1-8.2,22.1l-8.8-2.2c3.7-31.7,33.6-51.1,49.6-77.1,0,0,35.9,41.7,39.5,46.3s11.1,19.3,11.1,30.7h-8.9c-.7-8.1-2.7-12.8-6.7-19.6-7.3-12.7-19.5-24.7-29.6-35.4v117.8c0,1.4,4.5,4.2,6.6,3.3,9.3-66.2,95.7-102.2,131.9-34.4l-16.3,19-5.3-7.4,10.8-13.5c-37.5-47.6-94.6-21.1-111.2,29.7-1.4,4.2-4.3,12-2.2,15.4,5.4-4.6,10-11,15.4-15.4,1.9-1.5,10.7-8.1,12.1-6.6l-.3,10.7c-8.2,2.4-19.2,13.4-21.7,21.2-1.2,3.8.6,3.2,3.3,3.3,4.8.2,9.6-.2,14.4,0v8.8l-19.8,1.1c0,3.8,7.4,15.1,10.1,18.6,5,6.5,14.9,11.1,14.2,20h-24.1c2.3,6.4-21.2,33-23.2,33-8.5-9.4-21.6-19.8-23.2-32.9-5.1-1.1-22.4,2.4-24.1-3.4-.5-3.1,2.6-4.6,4.4-6.6,8.1-8.9,19.8-16.4,19.8-29.7h-17.6v-8.8h17.6c-11-20.5-33.5-34.4-57.4-27.6-5.8,1.7-20.9,14.8-22.8,14.3l-36.2-45.1c21-32.1,64.6-44.2,96.4-19.6,17.3,13.4,29.9,34.3,33.2,56,2.1.9,6.6-2,6.6-3.3v-117.8h0ZM299.1,287c-1-44.2-47.7-86.6-91-61.3-3.1,1.8-15.9,11.7-16.7,14.3-1.1,3.7,3.3,8.7,5.5,11.6,2.4,3.3,17.7,21.7,19.6,21.8,29.6-22.4,59.6-11.8,82.6,13.5h0ZM331.9,298c0-7.4-6-13.3-13.3-13.3s-13.3,6-13.3,13.3,6,13.3,13.3,13.3,13.3-6,13.3-13.3ZM317.8,368.5c2.8-2,7.6-5.9,11.5-12.5,3.8-6.5,4.8-12.7,5.2-16h13.1c0-.1-13.4-22-13.4-22-10.2,1.3-20.7,5.4-29.6-2.3l-16.5,24.2h13.5c1.1,18.9,7.9,20.1,16.2,28.5h0Z"/>
    <path class="st3" d="M374,343.9v-93.9h44.7l23.6,20.4v73.5M415.8,258.4h-33v72.3s0,4.8,0,4.8h52.9v-55h-19.8v-22h0Z"/>
    <rect class="st1" x="39.3" y="295.8" width="215.8" height="8.8"/>
    <rect class="st1" x="39.3" y="342.1" width="215.8" height="8.8"/>
    <rect class="st1" x="39.3" y="201.1" width="156.3" height="8.8"/>
    <rect class="st1" x="39.3" y="248.5" width="125.5" height="8.8"/>
    <rect class="st3" x="389.4" y="289.2" width="39.6" height="6.6"/>
    <rect class="st3" x="389.4" y="304.6" width="39.6" height="6.6"/>
    <rect class="st3" x="389.4" y="317.8" width="24.2" height="8.8"/>
  </g>
  <g id="Warstwa_2" class="st7">
    <path class="st6" d="M314.5,157.1s-25.5,29.1-29.2,35.2c-3.7,6.1-8.2,22.1-8.2,22.1l-8.8-2.2c3.7-31.7,33.6-51.1,49.6-77.1,0,0,35.9,41.7,39.5,46.3s11.1,19.3,11.1,30.7h-8.9c-.7-8.1-2.7-12.8-6.7-19.6-7.3-12.7-19.5-24.7-29.6-35.4v117.8c0,1.4,4.5,4.2,6.6,3.3,9.3-66.2,95.7-102.2,131.9-34.4l-16.3,19-5.3-7.4,10.8-13.5c-37.5-47.6-94.6-21.1-111.2,29.7-1.4,4.2-4.3,12-2.2,15.4,5.4-4.6,10-11,15.4-15.4,1.9-1.5,10.7-8.1,12.1-6.6l-.3,10.7c-8.2,2.4-19.2,13.4-21.7,21.2-1.2,3.8.6,3.2,3.3,3.3,4.8.2,9.6-.2,14.4,0v8.8l-19.8,1.1c0,3.8,7.4,15.1,10.1,18.6,5,6.5,14.9,11.1,14.2,20h-24.1c2.3,6.4-21.2,33-23.2,33-8.5-9.4-21.6-19.8-23.2-32.9-5.1-1.1-22.4,2.4-24.1-3.4-.5-3.1,2.6-4.6,4.4-6.6,8.1-8.9,19.8-16.4,19.8-29.7h-17.6v-8.8h17.6c-11-20.5-33.5-34.4-57.4-27.6-5.8,1.7-20.9,14.8-22.8,14.3l-36.2-45.1c21-32.1,64.6-44.2,96.4-19.6,17.3,13.4,29.9,34.3,33.2,56,2.1.9,6.6-2,6.6-3.3v-117.8h0ZM299.1,287c-1-44.2-47.7-86.6-91-61.3-3.1,1.8-15.9,11.7-16.7,14.3-1.1,3.7,3.3,8.7,5.5,11.6,2.4,3.3,17.7,21.7,19.6,21.8,29.6-22.4,59.6-11.8,82.6,13.5h0ZM331.9,298c0-7.4-6-13.3-13.3-13.3s-13.3,6-13.3,13.3,6,13.3,13.3,13.3,13.3-6,13.3-13.3ZM317.8,368.5c2.8-2,7.6-5.9,11.5-12.5,3.8-6.5,4.8-12.7,5.2-16h13.1c0-.1-13.4-22-13.4-22-10.2,1.3-20.7,5.4-29.6-2.3l-16.5,24.2h13.5c1.1,18.9,7.9,20.1,16.2,28.5h0Z"/>
    <g class="st0">
      <rect class="st2" x="39.3" y="295.8" width="215.8" height="8.8"/>
      <rect class="st2" x="39.3" y="342.1" width="215.8" height="8.8"/>
      <rect class="st2" x="39.3" y="201.1" width="156.3" height="8.8"/>
      <rect class="st2" x="39.3" y="248.5" width="125.5" height="8.8"/>
    </g>
    <g>
      <path class="st4" d="M374,343.9v-93.9h44.7l23.6,20.4v73.5M415.8,258.4h-33v72.3s0,4.8,0,4.8h52.9v-55h-19.8v-22h0Z"/>
      <rect class="st4" x="389.4" y="289.2" width="39.6" height="6.6"/>
      <rect class="st4" x="389.4" y="304.6" width="39.6" height="6.6"/>
      <rect class="st4" x="389.4" y="317.8" width="24.2" height="8.8"/>
    </g>
  </g>
</svg>